0
SECTION
2
HEADER
9
$INSUNITS
70
4
9
$ACADVER
1
AC1014
9
$HANDSEED
5
FFFF
0
ENDSEC
0
SECTION
2
TABLES
0
TABLE
2
VPORT
5
8
100
AcDbSymbolTable
0
ENDTAB
0
TABLE
2
LTYPE
5
5
100
AcDbSymbolTable
0
LTYPE
5
14
100
AcDbSymbolTableRecord
100
AcDbLinetypeTableRecord
2
BYBLOCK
70
0
0
LTYPE
5
15
100
AcDbSymbolTableRecord
100
AcDbLinetypeTableRecord
2
BYLAYER
70
0
0
LTYPE
5
16
100
AcDbSymbolTableRecord
100
AcDbLinetypeTableRecord
2
DASHED
70
0
3
Dashed __ __ __ __ __ __ __ __ __ __ __ __ __ _
72
65
73
2
40
0.75
49
0.5
74
0
49
-0.25
74
0
0
ENDTAB
0
TABLE
2
LAYER
5
2
100
AcDbSymbolTable
70
2
0
LAYER
5
50
100
AcDbSymbolTableRecord
100
AcDbLayerTableRecord
2
0
70
0
62
7
6
CONTINUOUS
0
ENDTAB
0
TABLE
2
STYLE
5
3
100
AcDbSymbolTable
70
1
0
STYLE
5
11
100
AcDbSymbolTableRecord
100
AcDbTextStyleTableRecord
2
STANDARD
70
0
0
ENDTAB
0
TABLE
2
VIEW
5
6
100
AcDbSymbolTable
70
0
0
ENDTAB
0
TABLE
2
UCS
5
7
100
AcDbSymbolTable
70
0
0
ENDTAB
0
TABLE
2
APPID
5
9
100
AcDbSymbolTable
70
2
0
APPID
5
12
100
AcDbSymbolTableRecord
100
AcDbRegAppTableRecord
2
ACAD
70
0
0
ENDTAB
0
TABLE
2
DIMSTYLE
5
A
100
AcDbSymbolTable
70
1
0
ENDTAB
0
TABLE
2
BLOCK_RECORD
5
1
100
AcDbSymbolTable
70
1
0
BLOCK_RECORD
5
1F
100
AcDbSymbolTableRecord
100
AcDbBlockTableRecord
2
*MODEL_SPACE
0
BLOCK_RECORD
5
1B
100
AcDbSymbolTableRecord
100
AcDbBlockTableRecord
2
*PAPER_SPACE
0
ENDTAB
0
ENDSEC
0
SECTION
2
BLOCKS
0
BLOCK
5
20
100
AcDbEntity
100
AcDbBlockBegin
2
*MODEL_SPACE
0
ENDBLK
5
21
100
AcDbEntity
100
AcDbBlockEnd
0
BLOCK
5
1C
100
AcDbEntity
100
AcDbBlockBegin
2
*PAPER_SPACE
0
ENDBLK
5
1D
100
AcDbEntity
100
AcDbBlockEnd
0
ENDSEC
0
SECTION
2
ENTITIES
0
LWPOLYLINE
5
100
100
AcDbEntity
8
0
100
AcDbPolyline
90
8
70
1
43
0.0
10
-154.51518500000083
20
-0.95739999998960323
42
0.41421510000029343
10
-164.51518499999949
20
-10.957399999998071
10
-164.51518800000142
20
-68.957400999998015
42
0.41421299999767808
10
-154.51518800000156
20
-78.957400999917482
10
-10.515188000001334
20
-78.957398999999498
42
0.41421239999993958
10
-0.51518800000189535
20
-68.957398999999583
10
-0.51518800000067699
20
-10.957400999999622
42
0.41421420000009779
10
-10.515188000000602
20
-0.95740099999845674
0
LWPOLYLINE
5
101
100
AcDbEntity
8
0
100
AcDbPolyline
90
4
70
1
43
0.0
10
-67.085187000001312
20
-76.450599999999
10
-53.085187000001312
20
-76.450599999999
10
-53.085187000001312
20
-62.450599999998992
10
-67.085187000001312
20
-62.450599999998992
0
LWPOLYLINE
5
102
100
AcDbEntity
8
0
100
AcDbPolyline
90
4
70
1
43
0.0
10
-111.98018700000137
20
-76.460599999998578
10
-97.980187000001393
20
-76.460599999998578
10
-97.980187000001393
20
-62.460599999998578
10
-111.98018700000137
20
-62.460599999998578
0
LWPOLYLINE
5
103
100
AcDbEntity
8
0
100
AcDbPolyline
90
4
70
1
43
0.0
10
-16.60518700000079
20
-29.477399999999516
10
-2.605187000000786
20
-29.477399999999516
10
-2.605187000000786
20
-15.477399999999513
10
-16.60518700000079
20
-15.477399999999513
0
LWPOLYLINE
5
104
100
AcDbEntity
8
0
100
AcDbPolyline
90
4
70
1
43
0.0
10
-34.595187000000884
20
-35.487399999999326
10
-20.595187000000877
20
-35.487399999999326
10
-20.595187000000877
20
-21.487399999999326
10
-34.595187000000884
20
-21.487399999999326
0
LWPOLYLINE
5
105
100
AcDbEntity
8
0
100
AcDbPolyline
90
4
70
1
43
0.0
10
-53.095187000000934
20
-35.48739999999917
10
-39.095187000000927
20
-35.48739999999917
10
-39.095187000000927
20
-21.487399999999166
10
-53.095187000000934
20
-21.487399999999166
0
LWPOLYLINE
5
106
100
AcDbEntity
8
0
100
AcDbPolyline
90
4
70
1
43
0.0
10
-71.595187000001019
20
-29.737399999998999
10
-57.595187000001012
20
-29.737399999998999
10
-57.595187000001012
20
-43.737399999998999
10
-71.595187000001019
20
-43.737399999998999
0
LWPOLYLINE
5
107
100
AcDbEntity
8
0
100
AcDbPolyline
90
4
70
1
43
0.0
10
-34.605187000000697
20
-16.987399999999361
10
-20.605187000000697
20
-16.987399999999361
10
-20.605187000000697
20
-2.9873999999993561
10
-34.605187000000697
20
-2.9873999999993561
0
LWPOLYLINE
5
108
100
AcDbEntity
8
0
100
AcDbPolyline
90
4
70
1
43
0.0
10
-53.105187000000747
20
-16.987399999999184
10
-39.105187000000747
20
-16.987399999999184
10
-39.105187000000747
20
-2.9873999999991785
10
-53.105187000000747
20
-2.9873999999991785
0
LWPOLYLINE
5
109
100
AcDbEntity
8
0
100
AcDbPolyline
90
4
70
1
43
0.0
10
-71.605187000000839
20
-25.237399999998999
10
-57.605187000000832
20
-25.237399999998999
10
-57.605187000000832
20
-11.237399999998994
10
-71.605187000000839
20
-11.237399999998994
0
LWPOLYLINE
5
110
100
AcDbEntity
8
0
100
AcDbPolyline
90
4
70
1
43
0.0
10
-89.585187000001014
20
-37.697399999998837
10
-75.585187000001
20
-37.697399999998837
10
-75.585187000001
20
-23.697399999998829
10
-89.585187000001014
20
-23.697399999998829
0
LWPOLYLINE
5
111
100
AcDbEntity
8
0
100
AcDbPolyline
90
4
70
1
43
0.0
10
-107.58518700000089
20
-25.247399999998649
10
-93.5851870000009
20
-25.247399999998649
10
-93.5851870000009
20
-11.247399999998656
10
-107.58518700000089
20
-11.247399999998656
0
LWPOLYLINE
5
112
100
AcDbEntity
8
0
100
AcDbPolyline
90
4
70
1
43
0.0
10
-126.08518700000087
20
-16.9973999999985
10
-112.08518700000087
20
-16.9973999999985
10
-112.08518700000087
20
-2.9973999999984979
10
-126.08518700000087
20
-2.9973999999984979
0
LWPOLYLINE
5
113
100
AcDbEntity
8
0
100
AcDbPolyline
90
4
70
1
43
0.0
10
-144.58518700000093
20
-16.997399999998322
10
-130.58518700000093
20
-16.997399999998322
10
-130.58518700000093
20
-2.9973999999983225
10
-144.58518700000093
20
-2.9973999999983225
0
LWPOLYLINE
5
114
100
AcDbEntity
8
0
100
AcDbPolyline
90
4
70
1
43
0.0
10
-162.58518700000104
20
-29.487399999998125
10
-148.58518700000104
20
-29.487399999998125
10
-148.58518700000104
20
-15.487399999998122
10
-162.58518700000104
20
-15.487399999998122
0
CIRCLE
5
115
100
AcDbEntity
8
0
100
AcDbCircle
10
-155.21160000000094
20
-10.029199999998157
30
0
40
2.2499999999999916
210
0
220
0
230
1
0
CIRCLE
5
116
100
AcDbEntity
8
0
100
AcDbCircle
10
-10.177600000000684
20
-10.029199999999543
30
0
40
2.25
210
0
220
0
230
1
0
CIRCLE
5
117
100
AcDbEntity
8
0
100
AcDbCircle
10
-10.177600000001243
20
-70.023999999999489
30
0
40
2.25
210
0
220
0
230
1
0
CIRCLE
5
118
100
AcDbEntity
8
0
100
AcDbCircle
10
-155.21160000000151
20
-70.07479999999812
30
0
40
2.2499999999999964
210
0
220
0
230
1
0
ENDSEC
0
SECTION
2
OBJECTS
0
DICTIONARY
5
C
100
AcDbDictionary
3
ACAD_GROUP
350
D
3
ACAD_MLINESTYLE
350
17
0
DICTIONARY
5
D
100
AcDbDictionary
0
DICTIONARY
5
1A
330
C
100
AcDbDictionary
0
DICTIONARY
5
17
100
AcDbDictionary
0
ENDSEC
0
EOF
